<svg xmlns="http://www.w3.org/2000/svg" version="1.1" xmlns:xlink="http://www.w3.org/1999/xlink" xmlns:svgjs="http://svgjs.dev/svgjs" viewBox="0 0 1422 800"><circle r="17" cx="1109" cy="417" stroke-width="2" stroke="hsl(323, 50%, 50%)" fill="none" opacity="0.42"></circle><circle r="9" cx="684" cy="647" stroke-width="2" stroke="hsl(244, 50%, 50%)" fill="none" opacity="0.64"></circle><circle r="17.5" cx="794" cy="768" stroke-width="2" stroke="hsl(234, 50%, 50%)" fill="none" opacity="0.74"></circle><circle r="9.5" cx="1321" cy="173" stroke-width="2" stroke="hsl(314, 50%, 50%)" fill="none" opacity="0.35"></circle><circle r="14" cx="1182" cy="454" stroke-width="2" stroke="hsl(342, 50%, 50%)" fill="none" opacity="0.21"></circle><circle r="22" cx="200" cy="642" stroke-width="2" stroke="hsl(263, 50%, 50%)" fill="none" opacity="0.82"></circle><circle r="18" cx="986" cy="695" stroke-width="2" stroke="hsl(275, 50%, 50%)" fill="none" opacity="0.50"></circle><circle r="14" cx="1342" cy="581" stroke-width="2" stroke="hsl(300, 50%, 50%)" fill="none" opacity="0.14"></circle><circle r="11" cx="1120" cy="152" stroke-width="2" stroke="hsl(316, 50%, 50%)" fill="none" opacity="0.30"></circle><circle r="18.5" cx="659" cy="111" stroke-width="2" stroke="hsl(291, 50%, 50%)" fill="none" opacity="0.32"></circle><circle r="13.5" cx="1119" cy="23" stroke-width="2" stroke="hsl(246, 50%, 50%)" fill="none" opacity="0.68"></circle><circle r="14.5" cx="1122" cy="514" stroke-width="2" stroke="hsl(330, 50%, 50%)" fill="none" opacity="0.88"></circle><circle r="15" cx="215" cy="382" stroke-width="2" stroke="hsl(263, 50%, 50%)" fill="none" opacity="0.36"></circle><circle r="16.5" cx="691" cy="24" stroke-width="2" stroke="hsl(328, 50%, 50%)" fill="none" opacity="0.30"></circle><circle r="10" cx="1141" cy="128" stroke-width="2" stroke="hsl(313, 50%, 50%)" fill="none" opacity="0.75"></circle><circle r="10.5" cx="661" cy="513" stroke-width="2" stroke="hsl(245, 50%, 50%)" fill="none" opacity="0.42"></circle><circle r="15.5" cx="340" cy="354" stroke-width="2" stroke="hsl(240, 50%, 50%)" fill="none" opacity="0.70"></circle><circle r="17.5" cx="730" cy="136" stroke-width="2" stroke="hsl(272, 50%, 50%)" fill="none" opacity="0.15"></circle><circle r="12" cx="302" cy="776" stroke-width="2" stroke="hsl(246, 50%, 50%)" fill="none" opacity="0.71"></circle><circle r="13.5" cx="378" cy="101" stroke-width="2" stroke="hsl(234, 50%, 50%)" fill="none" opacity="0.12"></circle><circle r="10" cx="1363" cy="15" stroke-width="2" stroke="hsl(309, 50%, 50%)" fill="none" opacity="0.33"></circle><circle r="14" cx="754" cy="481" stroke-width="2" stroke="hsl(238, 50%, 50%)" fill="none" opacity="0.98"></circle><circle r="13.5" cx="468" cy="336" stroke-width="2" stroke="hsl(237, 50%, 50%)" fill="none" opacity="0.86"></circle><circle r="8" cx="1302" cy="498" stroke-width="2" stroke="hsl(322, 50%, 50%)" fill="none" opacity="0.11"></circle><circle r="19" cx="972" cy="352" stroke-width="2" stroke="hsl(265, 50%, 50%)" fill="none" opacity="0.82"></circle><circle r="15" cx="761" cy="534" stroke-width="2" stroke="hsl(235, 50%, 50%)" fill="none" opacity="0.71"></circle><circle r="15" cx="894" cy="120" stroke-width="2" stroke="hsl(254, 50%, 50%)" fill="none" opacity="0.65"></circle><circle r="12" cx="682" cy="167" stroke-width="2" stroke="hsl(260, 50%, 50%)" fill="none" opacity="0.48"></circle><circle r="12" cx="594" cy="645" stroke-width="2" stroke="hsl(244, 50%, 50%)" fill="none" opacity="0.55"></circle><circle r="12.5" cx="494" cy="545" stroke-width="2" stroke="hsl(239, 50%, 50%)" fill="none" opacity="0.55"></circle><circle r="18.5" cx="205" cy="328" stroke-width="2" stroke="hsl(263, 50%, 50%)" fill="none" opacity="0.29"></circle><circle r="17.5" cx="773" cy="598" stroke-width="2" stroke="hsl(235, 50%, 50%)" fill="none" opacity="0.48"></circle><circle r="10" cx="248" cy="20" stroke-width="2" stroke="hsl(187, 50%, 50%)" fill="none" opacity="0.28"></circle><circle r="10" cx="660" cy="564" stroke-width="2" stroke="hsl(245, 50%, 50%)" fill="none" opacity="0.27"></circle><circle r="21" cx="55" cy="292" stroke-width="2" stroke="hsl(287, 50%, 50%)" fill="none" opacity="0.32"></circle><circle r="12.5" cx="178" cy="590" stroke-width="2" stroke="hsl(271, 50%, 50%)" fill="none" opacity="0.64"></circle><circle r="12" cx="379" cy="228" stroke-width="2" stroke="hsl(236, 50%, 50%)" fill="none" opacity="0.37"></circle><circle r="17" cx="1001" cy="286" stroke-width="2" stroke="hsl(285, 50%, 50%)" fill="none" opacity="0.25"></circle><circle r="21" cx="1047" cy="114" stroke-width="2" stroke="hsl(283, 50%, 50%)" fill="none" opacity="0.84"></circle><circle r="10.5" cx="602" cy="606" stroke-width="2" stroke="hsl(245, 50%, 50%)" fill="none" opacity="0.64"></circle><circle r="13.5" cx="228" cy="429" stroke-width="2" stroke="hsl(259, 50%, 50%)" fill="none" opacity="0.82"></circle><circle r="13" cx="596" cy="190" stroke-width="2" stroke="hsl(244, 50%, 50%)" fill="none" opacity="0.99"></circle><circle r="8.5" cx="1170" cy="73" stroke-width="2" stroke="hsl(293, 50%, 50%)" fill="none" opacity="0.22"></circle><circle r="13" cx="1270" cy="585" stroke-width="2" stroke="hsl(330, 50%, 50%)" fill="none" opacity="0.18"></circle><circle r="23" cx="1049" cy="321" stroke-width="2" stroke="hsl(305, 50%, 50%)" fill="none" opacity="0.19"></circle><circle r="20" cx="592" cy="134" stroke-width="2" stroke="hsl(271, 50%, 50%)" fill="none" opacity="0.47"></circle><circle r="11" cx="46" cy="37" stroke-width="2" stroke="hsl(197, 50%, 50%)" fill="none" opacity="0.78"></circle><circle r="14.5" cx="963" cy="755" stroke-width="2" stroke="hsl(265, 50%, 50%)" fill="none" opacity="0.77"></circle><circle r="7" cx="401" cy="645" stroke-width="2" stroke="hsl(235, 50%, 50%)" fill="none" opacity="0.36"></circle><circle r="12" cx="628" cy="728" stroke-width="2" stroke="hsl(245, 50%, 50%)" fill="none" opacity="0.77"></circle><circle r="16" cx="515" cy="306" stroke-width="2" stroke="hsl(240, 50%, 50%)" fill="none" opacity="0.61"></circle><circle r="18.5" cx="1274" cy="774" stroke-width="2" stroke="hsl(330, 50%, 50%)" fill="none" opacity="0.86"></circle><circle r="18" cx="1279" cy="259" stroke-width="2" stroke="hsl(330, 50%, 50%)" fill="none" opacity="0.96"></circle><circle r="9" cx="576" cy="537" stroke-width="2" stroke="hsl(243, 50%, 50%)" fill="none" opacity="0.24"></circle><circle r="9" cx="289" cy="18" stroke-width="2" stroke="hsl(191, 50%, 50%)" fill="none" opacity="0.41"></circle><circle r="16" cx="492" cy="715" stroke-width="2" stroke="hsl(239, 50%, 50%)" fill="none" opacity="0.83"></circle><circle r="15" cx="985" cy="81" stroke-width="2" stroke="hsl(245, 50%, 50%)" fill="none" opacity="0.99"></circle><circle r="14.5" cx="305" cy="65" stroke-width="2" stroke="hsl(209, 50%, 50%)" fill="none" opacity="0.15"></circle><circle r="18.5" cx="850" cy="278" stroke-width="2" stroke="hsl(234, 50%, 50%)" fill="none" opacity="0.16"></circle><circle r="20" cx="952" cy="413" stroke-width="2" stroke="hsl(256, 50%, 50%)" fill="none" opacity="0.75"></circle><circle r="10.5" cx="111" cy="401" stroke-width="2" stroke="hsl(282, 50%, 50%)" fill="none" opacity="0.88"></circle><circle r="17.5" cx="922" cy="306" stroke-width="2" stroke="hsl(249, 50%, 50%)" fill="none" opacity="0.31"></circle><circle r="14" cx="447" cy="293" stroke-width="2" stroke="hsl(236, 50%, 50%)" fill="none" opacity="0.52"></circle><circle r="12" cx="624" cy="687" stroke-width="2" stroke="hsl(245, 50%, 50%)" fill="none" opacity="0.30"></circle><circle r="8.5" cx="1408" cy="409" stroke-width="2" stroke="hsl(259, 50%, 50%)" fill="none" opacity="0.85"></circle><circle r="10.5" cx="431" cy="412" stroke-width="2" stroke="hsl(235, 50%, 50%)" fill="none" opacity="0.24"></circle><circle r="10.5" cx="1108" cy="114" stroke-width="2" stroke="hsl(298, 50%, 50%)" fill="none" opacity="0.68"></circle><circle r="16" cx="187" cy="244" stroke-width="2" stroke="hsl(267, 50%, 50%)" fill="none" opacity="0.40"></circle><circle r="12" cx="497" cy="255" stroke-width="2" stroke="hsl(239, 50%, 50%)" fill="none" opacity="0.56"></circle><circle r="13" cx="547" cy="237" stroke-width="2" stroke="hsl(242, 50%, 50%)" fill="none" opacity="0.56"></circle><circle r="17.5" cx="1072" cy="202" stroke-width="2" stroke="hsl(314, 50%, 50%)" fill="none" opacity="0.11"></circle><circle r="9.5" cx="710" cy="602" stroke-width="2" stroke="hsl(242, 50%, 50%)" fill="none" opacity="0.67"></circle><circle r="12" cx="1178" cy="110" stroke-width="2" stroke="hsl(312, 50%, 50%)" fill="none" opacity="0.19"></circle><circle r="7.5" cx="826" cy="12" stroke-width="2" stroke="hsl(269, 50%, 50%)" fill="none" opacity="0.96"></circle><circle r="10.5" cx="423" cy="572" stroke-width="2" stroke="hsl(235, 50%, 50%)" fill="none" opacity="0.18"></circle><circle r="22" cx="966" cy="597" stroke-width="2" stroke="hsl(265, 50%, 50%)" fill="none" opacity="0.63"></circle><circle r="15" cx="1299" cy="73" stroke-width="2" stroke="hsl(314, 50%, 50%)" fill="none" opacity="0.71"></circle><circle r="11.5" cx="1364" cy="548" stroke-width="2" stroke="hsl(287, 50%, 50%)" fill="none" opacity="1.00"></circle><circle r="15" cx="1333" cy="48" stroke-width="2" stroke="hsl(309, 50%, 50%)" fill="none" opacity="0.13"></circle><circle r="18" cx="165" cy="724" stroke-width="2" stroke="hsl(271, 50%, 50%)" fill="none" opacity="0.92"></circle><circle r="14.5" cx="315" cy="590" stroke-width="2" stroke="hsl(243, 50%, 50%)" fill="none" opacity="0.57"></circle><circle r="10" cx="1277" cy="114" stroke-width="2" stroke="hsl(325, 50%, 50%)" fill="none" opacity="0.78"></circle><circle r="17.5" cx="150" cy="391" stroke-width="2" stroke="hsl(275, 50%, 50%)" fill="none" opacity="0.70"></circle><circle r="13" cx="1206" cy="484" stroke-width="2" stroke="hsl(343, 50%, 50%)" fill="none" opacity="0.32"></circle><circle r="14.5" cx="1040" cy="758" stroke-width="2" stroke="hsl(295, 50%, 50%)" fill="none" opacity="0.88"></circle><circle r="14" cx="546" cy="718" stroke-width="2" stroke="hsl(242, 50%, 50%)" fill="none" opacity="0.11"></circle><circle r="11.5" cx="606" cy="569" stroke-width="2" stroke="hsl(245, 50%, 50%)" fill="none" opacity="0.84"></circle><circle r="13.5" cx="401" cy="329" stroke-width="2" stroke="hsl(235, 50%, 50%)" fill="none" opacity="0.41"></circle><circle r="13.5" cx="94" cy="651" stroke-width="2" stroke="hsl(282, 50%, 50%)" fill="none" opacity="0.70"></circle><circle r="13" cx="406" cy="499" stroke-width="2" stroke="hsl(235, 50%, 50%)" fill="none" opacity="0.51"></circle><circle r="22" cx="463" cy="112" stroke-width="2" stroke="hsl(249, 50%, 50%)" fill="none" opacity="0.93"></circle><circle r="14.5" cx="97" cy="100" stroke-width="2" stroke="hsl(242, 50%, 50%)" fill="none" opacity="0.30"></circle><circle r="15" cx="199" cy="34" stroke-width="2" stroke="hsl(194, 50%, 50%)" fill="none" opacity="0.79"></circle><circle r="16" cx="1362" cy="669" stroke-width="2" stroke="hsl(287, 50%, 50%)" fill="none" opacity="0.44"></circle><circle r="22.5" cx="899" cy="619" stroke-width="2" stroke="hsl(242, 50%, 50%)" fill="none" opacity="0.81"></circle><circle r="16" cx="1076" cy="583" stroke-width="2" stroke="hsl(314, 50%, 50%)" fill="none" opacity="0.62"></circle><circle r="7" cx="645" cy="771" stroke-width="2" stroke="hsl(245, 50%, 50%)" fill="none" opacity="0.51"></circle><circle r="16" cx="300" cy="242" stroke-width="2" stroke="hsl(246, 50%, 50%)" fill="none" opacity="0.22"></circle><circle r="20" cx="1066" cy="508" stroke-width="2" stroke="hsl(305, 50%, 50%)" fill="none" opacity="0.22"></circle><circle r="12" cx="442" cy="373" stroke-width="2" stroke="hsl(235, 50%, 50%)" fill="none" opacity="0.84"></circle><circle r="14.5" cx="552" cy="611" stroke-width="2" stroke="hsl(242, 50%, 50%)" fill="none" opacity="0.52"></circle><circle r="20" cx="1313" cy="702" stroke-width="2" stroke="hsl(311, 50%, 50%)" fill="none" opacity="0.89"></circle><circle r="13.5" cx="1083" cy="157" stroke-width="2" stroke="hsl(309, 50%, 50%)" fill="none" opacity="0.30"></circle><circle r="12.5" cx="110" cy="561" stroke-width="2" stroke="hsl(282, 50%, 50%)" fill="none" opacity="0.35"></circle><circle r="23.5" cx="1098" cy="258" stroke-width="2" stroke="hsl(323, 50%, 50%)" fill="none" opacity="0.39"></circle><circle r="11.5" cx="1213" cy="101" stroke-width="2" stroke="hsl(316, 50%, 50%)" fill="none" opacity="0.52"></circle><circle r="15.5" cx="281" cy="721" stroke-width="2" stroke="hsl(250, 50%, 50%)" fill="none" opacity="0.57"></circle><circle r="12.5" cx="713" cy="517" stroke-width="2" stroke="hsl(240, 50%, 50%)" fill="none" opacity="0.16"></circle><circle r="12" cx="1086" cy="781" stroke-width="2" stroke="hsl(314, 50%, 50%)" fill="none" opacity="0.42"></circle><circle r="13" cx="562" cy="674" stroke-width="2" stroke="hsl(243, 50%, 50%)" fill="none" opacity="0.26"></circle><circle r="20" cx="919" cy="530" stroke-width="2" stroke="hsl(249, 50%, 50%)" fill="none" opacity="1.00"></circle><circle r="15.5" cx="66" cy="410" stroke-width="2" stroke="hsl(287, 50%, 50%)" fill="none" opacity="0.28"></circle><circle r="13" cx="1290" cy="558" stroke-width="2" stroke="hsl(322, 50%, 50%)" fill="none" opacity="0.83"></circle><circle r="17" cx="1221" cy="685" stroke-width="2" stroke="hsl(343, 50%, 50%)" fill="none" opacity="0.61"></circle><circle r="31.5" cx="614" cy="44" stroke-width="2" stroke="hsl(331, 50%, 50%)" fill="none" opacity="0.29"></circle><circle r="19.5" cx="237" cy="268" stroke-width="2" stroke="hsl(259, 50%, 50%)" fill="none" opacity="0.11"></circle><circle r="17" cx="1335" cy="291" stroke-width="2" stroke="hsl(300, 50%, 50%)" fill="none" opacity="0.45"></circle><circle r="7.5" cx="673" cy="592" stroke-width="2" stroke="hsl(244, 50%, 50%)" fill="none" opacity="0.13"></circle><circle r="19.5" cx="828" cy="659" stroke-width="2" stroke="hsl(233, 50%, 50%)" fill="none" opacity="0.73"></circle><circle r="15" cx="1398" cy="609" stroke-width="2" stroke="hsl(273, 50%, 50%)" fill="none" opacity="0.42"></circle><circle r="17" cx="791" cy="234" stroke-width="2" stroke="hsl(234, 50%, 50%)" fill="none" opacity="0.70"></circle><circle r="22.5" cx="612" cy="337" stroke-width="2" stroke="hsl(245, 50%, 50%)" fill="none" opacity="0.51"></circle><circle r="17" cx="289" cy="122" stroke-width="2" stroke="hsl(228, 50%, 50%)" fill="none" opacity="0.72"></circle><circle r="20" cx="1064" cy="691" stroke-width="2" stroke="hsl(305, 50%, 50%)" fill="none" opacity="0.21"></circle><circle r="11.5" cx="1323" cy="135" stroke-width="2" stroke="hsl(316, 50%, 50%)" fill="none" opacity="0.94"></circle><circle r="12.5" cx="1325" cy="236" stroke-width="2" stroke="hsl(311, 50%, 50%)" fill="none" opacity="0.87"></circle><circle r="18" cx="688" cy="326" stroke-width="2" stroke="hsl(244, 50%, 50%)" fill="none" opacity="0.12"></circle><circle r="16.5" cx="1182" cy="714" stroke-width="2" stroke="hsl(342, 50%, 50%)" fill="none" opacity="0.72"></circle><circle r="6.5" cx="115" cy="13" stroke-width="2" stroke="hsl(180, 50%, 50%)" fill="none" opacity="0.25"></circle><circle r="15.5" cx="436" cy="773" stroke-width="2" stroke="hsl(235, 50%, 50%)" fill="none" opacity="0.82"></circle><circle r="16" cx="782" cy="434" stroke-width="2" stroke="hsl(234, 50%, 50%)" fill="none" opacity="0.39"></circle><circle r="24.5" cx="1168" cy="401" stroke-width="2" stroke="hsl(340, 50%, 50%)" fill="none" opacity="0.88"></circle><circle r="10.5" cx="142" cy="567" stroke-width="2" stroke="hsl(275, 50%, 50%)" fill="none" opacity="0.92"></circle><circle r="17.5" cx="1022" cy="405" stroke-width="2" stroke="hsl(285, 50%, 50%)" fill="none" opacity="0.29"></circle><circle r="10" cx="666" cy="216" stroke-width="2" stroke="hsl(245, 50%, 50%)" fill="none" opacity="0.42"></circle><circle r="15" cx="337" cy="429" stroke-width="2" stroke="hsl(240, 50%, 50%)" fill="none" opacity="0.94"></circle><circle r="15.5" cx="1062" cy="418" stroke-width="2" stroke="hsl(305, 50%, 50%)" fill="none" opacity="0.62"></circle><circle r="9.5" cx="82" cy="26" stroke-width="2" stroke="hsl(197, 50%, 50%)" fill="none" opacity="0.64"></circle><circle r="16.5" cx="509" cy="157" stroke-width="2" stroke="hsl(246, 50%, 50%)" fill="none" opacity="0.74"></circle><circle r="10" cx="434" cy="448" stroke-width="2" stroke="hsl(235, 50%, 50%)" fill="none" opacity="0.27"></circle><circle r="14" cx="1383" cy="778" stroke-width="2" stroke="hsl(273, 50%, 50%)" fill="none" opacity="0.15"></circle><circle r="12.5" cx="480" cy="656" stroke-width="2" stroke="hsl(237, 50%, 50%)" fill="none" opacity="0.57"></circle><circle r="15" cx="136" cy="221" stroke-width="2" stroke="hsl(275, 50%, 50%)" fill="none" opacity="0.64"></circle><circle r="15" cx="115" cy="452" stroke-width="2" stroke="hsl(279, 50%, 50%)" fill="none" opacity="0.73"></circle><circle r="16" cx="705" cy="448" stroke-width="2" stroke="hsl(242, 50%, 50%)" fill="none" opacity="0.36"></circle><circle r="13.5" cx="71" cy="559" stroke-width="2" stroke="hsl(285, 50%, 50%)" fill="none" opacity="0.27"></circle><circle r="14.5" cx="767" cy="658" stroke-width="2" stroke="hsl(235, 50%, 50%)" fill="none" opacity="0.63"></circle><circle r="13.5" cx="775" cy="368" stroke-width="2" stroke="hsl(235, 50%, 50%)" fill="none" opacity="0.74"></circle><circle r="19" cx="1122" cy="723" stroke-width="2" stroke="hsl(330, 50%, 50%)" fill="none" opacity="0.40"></circle><circle r="11.5" cx="340" cy="765" stroke-width="2" stroke="hsl(240, 50%, 50%)" fill="none" opacity="0.82"></circle><circle r="22" cx="1305" cy="354" stroke-width="2" stroke="hsl(322, 50%, 50%)" fill="none" opacity="0.52"></circle><circle r="14" cx="1329" cy="483" stroke-width="2" stroke="hsl(311, 50%, 50%)" fill="none" opacity="0.70"></circle><circle r="5.5" cx="637" cy="791" stroke-width="2" stroke="hsl(245, 50%, 50%)" fill="none" opacity="0.82"></circle><circle r="19.5" cx="222" cy="711" stroke-width="2" stroke="hsl(259, 50%, 50%)" fill="none" opacity="0.20"></circle><circle r="10.5" cx="599" cy="230" stroke-width="2" stroke="hsl(244, 50%, 50%)" fill="none" opacity="0.90"></circle><circle r="16" cx="564" cy="288" stroke-width="2" stroke="hsl(243, 50%, 50%)" fill="none" opacity="0.62"></circle><circle r="11.5" cx="957" cy="267" stroke-width="2" stroke="hsl(265, 50%, 50%)" fill="none" opacity="0.90"></circle><circle r="13" cx="1074" cy="460" stroke-width="2" stroke="hsl(314, 50%, 50%)" fill="none" opacity="0.82"></circle><circle r="20.5" cx="1228" cy="358" stroke-width="2" stroke="hsl(341, 50%, 50%)" fill="none" opacity="0.35"></circle><circle r="15.5" cx="381" cy="49" stroke-width="2" stroke="hsl(235, 50%, 50%)" fill="none" opacity="0.60"></circle><circle r="17" cx="885" cy="351" stroke-width="2" stroke="hsl(238, 50%, 50%)" fill="none" opacity="0.67"></circle><circle r="17" cx="1064" cy="39" stroke-width="2" stroke="hsl(227, 50%, 50%)" fill="none" opacity="0.90"></circle><circle r="19" cx="1010" cy="483" stroke-width="2" stroke="hsl(285, 50%, 50%)" fill="none" opacity="0.80"></circle><circle r="15" cx="392" cy="278" stroke-width="2" stroke="hsl(236, 50%, 50%)" fill="none" opacity="0.54"></circle><circle r="18" cx="581" cy="760" stroke-width="2" stroke="hsl(244, 50%, 50%)" fill="none" opacity="0.29"></circle><circle r="12.5" cx="913" cy="205" stroke-width="2" stroke="hsl(249, 50%, 50%)" fill="none" opacity="0.72"></circle><circle r="11" cx="450" cy="628" stroke-width="2" stroke="hsl(236, 50%, 50%)" fill="none" opacity="0.72"></circle><circle r="14" cx="40" cy="102" stroke-width="2" stroke="hsl(246, 50%, 50%)" fill="none" opacity="0.49"></circle><circle r="16.5" cx="504" cy="446" stroke-width="2" stroke="hsl(239, 50%, 50%)" fill="none" opacity="0.75"></circle><circle r="11.5" cx="1404" cy="694" stroke-width="2" stroke="hsl(259, 50%, 50%)" fill="none" opacity="0.37"></circle><circle r="14.5" cx="443" cy="243" stroke-width="2" stroke="hsl(235, 50%, 50%)" fill="none" opacity="0.87"></circle><circle r="14.5" cx="888" cy="407" stroke-width="2" stroke="hsl(238, 50%, 50%)" fill="none" opacity="0.11"></circle><circle r="18" cx="109" cy="181" stroke-width="2" stroke="hsl(282, 50%, 50%)" fill="none" opacity="0.44"></circle><circle r="15.5" cx="1032" cy="568" stroke-width="2" stroke="hsl(295, 50%, 50%)" fill="none" opacity="0.19"></circle><circle r="11.5" cx="995" cy="545" stroke-width="2" stroke="hsl(275, 50%, 50%)" fill="none" opacity="0.87"></circle><circle r="13.5" cx="380" cy="414" stroke-width="2" stroke="hsl(236, 50%, 50%)" fill="none" opacity="0.30"></circle><circle r="15.5" cx="135" cy="621" stroke-width="2" stroke="hsl(275, 50%, 50%)" fill="none" opacity="0.17"></circle><circle r="14" cx="144" cy="41" stroke-width="2" stroke="hsl(195, 50%, 50%)" fill="none" opacity="0.82"></circle><circle r="16.5" cx="854" cy="717" stroke-width="2" stroke="hsl(234, 50%, 50%)" fill="none" opacity="0.81"></circle><circle r="17" cx="313" cy="487" stroke-width="2" stroke="hsl(243, 50%, 50%)" fill="none" opacity="0.80"></circle><circle r="16" cx="276" cy="666" stroke-width="2" stroke="hsl(250, 50%, 50%)" fill="none" opacity="0.15"></circle><circle r="14" cx="398" cy="145" stroke-width="2" stroke="hsl(234, 50%, 50%)" fill="none" opacity="0.39"></circle><circle r="15.5" cx="1397" cy="242" stroke-width="2" stroke="hsl(273, 50%, 50%)" fill="none" opacity="0.67"></circle><circle r="18.5" cx="1388" cy="322" stroke-width="2" stroke="hsl(273, 50%, 50%)" fill="none" opacity="0.59"></circle><circle r="15.5" cx="823" cy="516" stroke-width="2" stroke="hsl(233, 50%, 50%)" fill="none" opacity="0.62"></circle><circle r="14.5" cx="838" cy="465" stroke-width="2" stroke="hsl(233, 50%, 50%)" fill="none" opacity="0.53"></circle><circle r="16.5" cx="176" cy="158" stroke-width="2" stroke="hsl(264, 50%, 50%)" fill="none" opacity="0.70"></circle><circle r="20.5" cx="141" cy="319" stroke-width="2" stroke="hsl(275, 50%, 50%)" fill="none" opacity="0.42"></circle><circle r="13" cx="1239" cy="144" stroke-width="2" stroke="hsl(334, 50%, 50%)" fill="none" opacity="0.84"></circle><circle r="14" cx="612" cy="518" stroke-width="2" stroke="hsl(245, 50%, 50%)" fill="none" opacity="0.64"></circle><circle r="25.5" cx="540" cy="73" stroke-width="2" stroke="hsl(295, 50%, 50%)" fill="none" opacity="0.48"></circle><circle r="12.5" cx="1317" cy="530" stroke-width="2" stroke="hsl(311, 50%, 50%)" fill="none" opacity="0.16"></circle><circle r="12.5" cx="1375" cy="429" stroke-width="2" stroke="hsl(287, 50%, 50%)" fill="none" opacity="0.90"></circle><circle r="15.5" cx="881" cy="169" stroke-width="2" stroke="hsl(245, 50%, 50%)" fill="none" opacity="0.17"></circle><circle r="22" cx="814" cy="148" stroke-width="2" stroke="hsl(257, 50%, 50%)" fill="none" opacity="0.82"></circle><circle r="12" cx="960" cy="38" stroke-width="2" stroke="hsl(223, 50%, 50%)" fill="none" opacity="0.38"></circle><circle r="14" cx="1106" cy="76" stroke-width="2" stroke="hsl(271, 50%, 50%)" fill="none" opacity="0.72"></circle><circle r="13.5" cx="1079" cy="743" stroke-width="2" stroke="hsl(314, 50%, 50%)" fill="none" opacity="0.29"></circle><circle r="19" cx="777" cy="303" stroke-width="2" stroke="hsl(235, 50%, 50%)" fill="none" opacity="0.80"></circle><circle r="14.5" cx="549" cy="186" stroke-width="2" stroke="hsl(242, 50%, 50%)" fill="none" opacity="0.80"></circle><circle r="12.5" cx="618" cy="271" stroke-width="2" stroke="hsl(245, 50%, 50%)" fill="none" opacity="0.28"></circle><circle r="11" cx="359" cy="628" stroke-width="2" stroke="hsl(238, 50%, 50%)" fill="none" opacity="0.58"></circle><circle r="18.5" cx="289" cy="390" stroke-width="2" stroke="hsl(250, 50%, 50%)" fill="none" opacity="0.94"></circle><circle r="15.5" cx="1163" cy="554" stroke-width="2" stroke="hsl(340, 50%, 50%)" fill="none" opacity="0.49"></circle><circle r="16.5" cx="908" cy="467" stroke-width="2" stroke="hsl(242, 50%, 50%)" fill="none" opacity="0.42"></circle><circle r="9.5" cx="650" cy="655" stroke-width="2" stroke="hsl(245, 50%, 50%)" fill="none" opacity="0.52"></circle><circle r="8.5" cx="1295" cy="135" stroke-width="2" stroke="hsl(323, 50%, 50%)" fill="none" opacity="0.79"></circle><circle r="11.5" cx="345" cy="22" stroke-width="2" stroke="hsl(214, 50%, 50%)" fill="none" opacity="0.77"></circle><circle r="14" cx="1294" cy="458" stroke-width="2" stroke="hsl(322, 50%, 50%)" fill="none" opacity="0.79"></circle><circle r="14" cx="315" cy="172" stroke-width="2" stroke="hsl(238, 50%, 50%)" fill="none" opacity="0.46"></circle><circle r="10" cx="637" cy="197" stroke-width="2" stroke="hsl(245, 50%, 50%)" fill="none" opacity="0.86"></circle><circle r="14" cx="174" cy="778" stroke-width="2" stroke="hsl(271, 50%, 50%)" fill="none" opacity="0.52"></circle><circle r="17" cx="1224" cy="203" stroke-width="2" stroke="hsl(341, 50%, 50%)" fill="none" opacity="0.80"></circle><circle r="10" cx="15" cy="60" stroke-width="2" stroke="hsl(215, 50%, 50%)" fill="none" opacity="0.83"></circle><circle r="18" cx="1015" cy="215" stroke-width="2" stroke="hsl(285, 50%, 50%)" fill="none" opacity="0.99"></circle><circle r="9.5" cx="451" cy="592" stroke-width="2" stroke="hsl(236, 50%, 50%)" fill="none" opacity="0.70"></circle><circle r="9.5" cx="1150" cy="95" stroke-width="2" stroke="hsl(300, 50%, 50%)" fill="none" opacity="0.13"></circle><circle r="8.5" cx="637" cy="610" stroke-width="2" stroke="hsl(245, 50%, 50%)" fill="none" opacity="0.79"></circle><circle r="12" cx="350" cy="673" stroke-width="2" stroke="hsl(240, 50%, 50%)" fill="none" opacity="0.27"></circle><circle r="14.5" cx="1012" cy="30" stroke-width="2" stroke="hsl(221, 50%, 50%)" fill="none" opacity="0.49"></circle><circle r="10.5" cx="25" cy="512" stroke-width="2" stroke="hsl(288, 50%, 50%)" fill="none" opacity="0.45"></circle><circle r="16" cx="142" cy="504" stroke-width="2" stroke="hsl(275, 50%, 50%)" fill="none" opacity="0.15"></circle><circle r="9" cx="682" cy="540" stroke-width="2" stroke="hsl(244, 50%, 50%)" fill="none" opacity="0.77"></circle><circle r="15.5" cx="517" cy="773" stroke-width="2" stroke="hsl(240, 50%, 50%)" fill="none" opacity="0.87"></circle><circle r="22" cx="634" cy="417" stroke-width="2" stroke="hsl(245, 50%, 50%)" fill="none" opacity="0.35"></circle><circle r="14.5" cx="497" cy="596" stroke-width="2" stroke="hsl(239, 50%, 50%)" fill="none" opacity="0.99"></circle><circle r="13.5" cx="29" cy="428" stroke-width="2" stroke="hsl(288, 50%, 50%)" fill="none" opacity="0.19"></circle><circle r="11.5" cx="388" cy="372" stroke-width="2" stroke="hsl(236, 50%, 50%)" fill="none" opacity="0.92"></circle><circle r="14" cx="721" cy="776" stroke-width="2" stroke="hsl(240, 50%, 50%)" fill="none" opacity="0.28"></circle><circle r="11.5" cx="1159" cy="40" stroke-width="2" stroke="hsl(263, 50%, 50%)" fill="none" opacity="0.61"></circle><circle r="14" cx="1171" cy="207" stroke-width="2" stroke="hsl(340, 50%, 50%)" fill="none" opacity="0.39"></circle><circle r="15.5" cx="824" cy="352" stroke-width="2" stroke="hsl(233, 50%, 50%)" fill="none" opacity="0.70"></circle><circle r="12" cx="336" cy="713" stroke-width="2" stroke="hsl(240, 50%, 50%)" fill="none" opacity="0.47"></circle><circle r="15" cx="926" cy="85" stroke-width="2" stroke="hsl(248, 50%, 50%)" fill="none" opacity="0.25"></circle><circle r="13" cx="356" cy="189" stroke-width="2" stroke="hsl(238, 50%, 50%)" fill="none" opacity="0.18"></circle><circle r="11" cx="719" cy="638" stroke-width="2" stroke="hsl(240, 50%, 50%)" fill="none" opacity="0.83"></circle><circle r="14" cx="866" cy="60" stroke-width="2" stroke="hsl(264, 50%, 50%)" fill="none" opacity="0.52"></circle><circle r="15" cx="1135" cy="779" stroke-width="2" stroke="hsl(336, 50%, 50%)" fill="none" opacity="0.10"></circle><circle r="12.5" cx="1276" cy="511" stroke-width="2" stroke="hsl(330, 50%, 50%)" fill="none" opacity="0.60"></circle><circle r="16" cx="444" cy="180" stroke-width="2" stroke="hsl(235, 50%, 50%)" fill="none" opacity="0.77"></circle><circle r="20.5" cx="559" cy="385" stroke-width="2" stroke="hsl(243, 50%, 50%)" fill="none" opacity="0.33"></circle><circle r="17.5" cx="1328" cy="428" stroke-width="2" stroke="hsl(311, 50%, 50%)" fill="none" opacity="0.70"></circle><circle r="13" cx="728" cy="688" stroke-width="2" stroke="hsl(240, 50%, 50%)" fill="none" opacity="0.13"></circle><circle r="14" cx="1166" cy="507" stroke-width="2" stroke="hsl(340, 50%, 50%)" fill="none" opacity="0.28"></circle><circle r="14.5" cx="385" cy="556" stroke-width="2" stroke="hsl(236, 50%, 50%)" fill="none" opacity="0.92"></circle><circle r="12.5" cx="369" cy="482" stroke-width="2" stroke="hsl(238, 50%, 50%)" fill="none" opacity="0.87"></circle><circle r="21.5" cx="1141" cy="669" stroke-width="2" stroke="hsl(336, 50%, 50%)" fill="none" opacity="0.69"></circle><circle r="12.5" cx="916" cy="252" stroke-width="2" stroke="hsl(249, 50%, 50%)" fill="none" opacity="0.34"></circle><circle r="18" cx="229" cy="151" stroke-width="2" stroke="hsl(244, 50%, 50%)" fill="none" opacity="0.42"></circle><circle r="11" cx="1366" cy="508" stroke-width="2" stroke="hsl(287, 50%, 50%)" fill="none" opacity="0.71"></circle><circle r="12.5" cx="1385" cy="473" stroke-width="2" stroke="hsl(273, 50%, 50%)" fill="none" opacity="0.53"></circle><circle r="12.5" cx="1257" cy="445" stroke-width="2" stroke="hsl(336, 50%, 50%)" fill="none" opacity="0.46"></circle><circle r="21" cx="1162" cy="609" stroke-width="2" stroke="hsl(340, 50%, 50%)" fill="none" opacity="0.24"></circle><circle r="13" cx="842" cy="414" stroke-width="2" stroke="hsl(233, 50%, 50%)" fill="none" opacity="0.33"></circle><circle r="14" cx="73" cy="610" stroke-width="2" stroke="hsl(285, 50%, 50%)" fill="none" opacity="0.35"></circle><circle r="11.5" cx="721" cy="568" stroke-width="2" stroke="hsl(240, 50%, 50%)" fill="none" opacity="0.81"></circle><circle r="24" cx="1178" cy="314" stroke-width="2" stroke="hsl(342, 50%, 50%)" fill="none" opacity="0.75"></circle><circle r="11.5" cx="903" cy="38" stroke-width="2" stroke="hsl(242, 50%, 50%)" fill="none" opacity="0.82"></circle><circle r="15" cx="255" cy="497" stroke-width="2" stroke="hsl(254, 50%, 50%)" fill="none" opacity="0.52"></circle><circle r="18" cx="1327" cy="630" stroke-width="2" stroke="hsl(311, 50%, 50%)" fill="none" opacity="0.38"></circle><circle r="15.5" cx="155" cy="101" stroke-width="2" stroke="hsl(237, 50%, 50%)" fill="none" opacity="0.99"></circle><circle r="16.5" cx="985" cy="138" stroke-width="2" stroke="hsl(269, 50%, 50%)" fill="none" opacity="0.92"></circle><circle r="15.5" cx="1247" cy="89" stroke-width="2" stroke="hsl(320, 50%, 50%)" fill="none" opacity="0.21"></circle><circle r="10.5" cx="290" cy="293" stroke-width="2" stroke="hsl(246, 50%, 50%)" fill="none" opacity="0.33"></circle><circle r="16" cx="331" cy="540" stroke-width="2" stroke="hsl(243, 50%, 50%)" fill="none" opacity="0.43"></circle><circle r="18" cx="172" cy="450" stroke-width="2" stroke="hsl(271, 50%, 50%)" fill="none" opacity="0.84"></circle><circle r="10" cx="408" cy="204" stroke-width="2" stroke="hsl(235, 50%, 50%)" fill="none" opacity="0.86"></circle><circle r="16.5" cx="255" cy="207" stroke-width="2" stroke="hsl(254, 50%, 50%)" fill="none" opacity="0.49"></circle><circle r="20.5" cx="465" cy="33" stroke-width="2" stroke="hsl(270, 50%, 50%)" fill="none" opacity="0.63"></circle><circle r="15" cx="275" cy="333" stroke-width="2" stroke="hsl(250, 50%, 50%)" fill="none" opacity="0.15"></circle><circle r="26.5" cx="1115" cy="343" stroke-width="2" stroke="hsl(330, 50%, 50%)" fill="none" opacity="0.21"></circle><circle r="13" cx="689" cy="715" stroke-width="2" stroke="hsl(242, 50%, 50%)" fill="none" opacity="0.21"></circle><circle r="13" cx="1138" cy="188" stroke-width="2" stroke="hsl(336, 50%, 50%)" fill="none" opacity="0.55"></circle><circle r="13" cx="19" cy="686" stroke-width="2" stroke="hsl(288, 50%, 50%)" fill="none" opacity="0.72"></circle><circle r="11" cx="818" cy="42" stroke-width="2" stroke="hsl(284, 50%, 50%)" fill="none" opacity="0.95"></circle><circle r="15" cx="1359" cy="741" stroke-width="2" stroke="hsl(287, 50%, 50%)" fill="none" opacity="0.24"></circle><circle r="14" cx="709" cy="374" stroke-width="2" stroke="hsl(242, 50%, 50%)" fill="none" opacity="0.64"></circle><circle r="16" cx="1398" cy="49" stroke-width="2" stroke="hsl(302, 50%, 50%)" fill="none" opacity="0.68"></circle><circle r="21.5" cx="106" cy="760" stroke-width="2" stroke="hsl(282, 50%, 50%)" fill="none" opacity="0.17"></circle><circle r="18.5" cx="81" cy="488" stroke-width="2" stroke="hsl(285, 50%, 50%)" fill="none" opacity="0.13"></circle><circle r="13" cx="1343" cy="201" stroke-width="2" stroke="hsl(300, 50%, 50%)" fill="none" opacity="0.18"></circle><circle r="19" cx="1263" cy="711" stroke-width="2" stroke="hsl(336, 50%, 50%)" fill="none" opacity="0.86"></circle><circle r="9" cx="449" cy="551" stroke-width="2" stroke="hsl(236, 50%, 50%)" fill="none" opacity="0.81"></circle><circle r="11" cx="497" cy="500" stroke-width="2" stroke="hsl(239, 50%, 50%)" fill="none" opacity="0.81"></circle><circle r="21" cx="33" cy="229" stroke-width="2" stroke="hsl(288, 50%, 50%)" fill="none" opacity="0.61"></circle><circle r="8" cx="935" cy="14" stroke-width="2" stroke="hsl(216, 50%, 50%)" fill="none" opacity="0.73"></circle><circle r="15" cx="439" cy="708" stroke-width="2" stroke="hsl(235, 50%, 50%)" fill="none" opacity="0.48"></circle><circle r="14.5" cx="745" cy="33" stroke-width="2" stroke="hsl(315, 50%, 50%)" fill="none" opacity="0.82"></circle><circle r="17.5" cx="1266" cy="185" stroke-width="2" stroke="hsl(336, 50%, 50%)" fill="none" opacity="0.18"></circle><circle r="13" cx="491" cy="211" stroke-width="2" stroke="hsl(239, 50%, 50%)" fill="none" opacity="0.50"></circle><circle r="12.5" cx="349" cy="262" stroke-width="2" stroke="hsl(240, 50%, 50%)" fill="none" opacity="0.56"></circle><circle r="10" cx="414" cy="673" stroke-width="2" stroke="hsl(235, 50%, 50%)" fill="none" opacity="0.51"></circle><circle r="12.5" cx="705" cy="202" stroke-width="2" stroke="hsl(242, 50%, 50%)" fill="none" opacity="0.14"></circle><circle r="18" cx="839" cy="573" stroke-width="2" stroke="hsl(233, 50%, 50%)" fill="none" opacity="0.67"></circle><circle r="16.5" cx="383" cy="741" stroke-width="2" stroke="hsl(236, 50%, 50%)" fill="none" opacity="0.58"></circle><circle r="11" cx="453" cy="484" stroke-width="2" stroke="hsl(236, 50%, 50%)" fill="none" opacity="0.98"></circle><circle r="19.5" cx="573" cy="468" stroke-width="2" stroke="hsl(243, 50%, 50%)" fill="none" opacity="0.91"></circle><circle r="16.5" cx="767" cy="85" stroke-width="2" stroke="hsl(296, 50%, 50%)" fill="none" opacity="0.19"></circle><circle r="16" cx="1253" cy="405" stroke-width="2" stroke="hsl(336, 50%, 50%)" fill="none" opacity="0.23"></circle><circle r="13" cx="738" cy="407" stroke-width="2" stroke="hsl(238, 50%, 50%)" fill="none" opacity="0.57"></circle><circle r="17" cx="21" cy="597" stroke-width="2" stroke="hsl(288, 50%, 50%)" fill="none" opacity="0.60"></circle><circle r="15.5" cx="1250" cy="621" stroke-width="2" stroke="hsl(336, 50%, 50%)" fill="none" opacity="0.37"></circle><circle r="13" cx="70" cy="153" stroke-width="2" stroke="hsl(268, 50%, 50%)" fill="none" opacity="0.79"></circle><circle r="10" cx="35" cy="543" stroke-width="2" stroke="hsl(288, 50%, 50%)" fill="none" opacity="0.83"></circle><circle r="15.5" cx="1378" cy="150" stroke-width="2" stroke="hsl(286, 50%, 50%)" fill="none" opacity="0.20"></circle><circle r="16" cx="243" cy="774" stroke-width="2" stroke="hsl(259, 50%, 50%)" fill="none" opacity="0.99"></circle><circle r="10.5" cx="19" cy="474" stroke-width="2" stroke="hsl(288, 50%, 50%)" fill="none" opacity="0.16"></circle><circle r="19.5" cx="1179" cy="254" stroke-width="2" stroke="hsl(342, 50%, 50%)" fill="none" opacity="0.41"></circle><circle r="12" cx="532" cy="506" stroke-width="2" stroke="hsl(240, 50%, 50%)" fill="none" opacity="0.76"></circle><circle r="18" cx="123" cy="689" stroke-width="2" stroke="hsl(279, 50%, 50%)" fill="none" opacity="0.94"></circle><circle r="13.5" cx="864" cy="223" stroke-width="2" stroke="hsl(234, 50%, 50%)" fill="none" opacity="0.55"></circle><circle r="21.5" cx="1193" cy="766" stroke-width="2" stroke="hsl(342, 50%, 50%)" fill="none" opacity="0.25"></circle><circle r="22.5" cx="1021" cy="642" stroke-width="2" stroke="hsl(285, 50%, 50%)" fill="none" opacity="0.57"></circle><circle r="15" cx="865" cy="772" stroke-width="2" stroke="hsl(234, 50%, 50%)" fill="none" opacity="0.29"></circle><circle r="12.5" cx="640" cy="156" stroke-width="2" stroke="hsl(261, 50%, 50%)" fill="none" opacity="0.21"></circle><circle r="10.5" cx="534" cy="568" stroke-width="2" stroke="hsl(242, 50%, 50%)" fill="none" opacity="0.51"></circle><circle r="15.5" cx="1194" cy="150" stroke-width="2" stroke="hsl(332, 50%, 50%)" fill="none" opacity="0.54"></circle><circle r="8.5" cx="382" cy="597" stroke-width="2" stroke="hsl(236, 50%, 50%)" fill="none" opacity="0.20"></circle><circle r="9.5" cx="1161" cy="153" stroke-width="2" stroke="hsl(328, 50%, 50%)" fill="none" opacity="0.44"></circle><circle r="18.5" cx="1363" cy="374" stroke-width="2" stroke="hsl(287, 50%, 50%)" fill="none" opacity="0.82"></circle><circle r="15.5" cx="272" cy="448" stroke-width="2" stroke="hsl(250, 50%, 50%)" fill="none" opacity="0.61"></circle><circle r="7.5" cx="406" cy="617" stroke-width="2" stroke="hsl(235, 50%, 50%)" fill="none" opacity="0.57"></circle><circle r="12.5" cx="121" cy="262" stroke-width="2" stroke="hsl(279, 50%, 50%)" fill="none" opacity="0.29"></circle><circle r="16" cx="757" cy="188" stroke-width="2" stroke="hsl(235, 50%, 50%)" fill="none" opacity="0.65"></circle><circle r="16" cx="1114" cy="557" stroke-width="2" stroke="hsl(330, 50%, 50%)" fill="none" opacity="0.24"></circle><circle r="7" cx="663" cy="616" stroke-width="2" stroke="hsl(245, 50%, 50%)" fill="none" opacity="0.45"></circle><circle r="13" cx="782" cy="24" stroke-width="2" stroke="hsl(295, 50%, 50%)" fill="none" opacity="0.28"></circle><circle r="14.5" cx="658" cy="261" stroke-width="2" stroke="hsl(245, 50%, 50%)" fill="none" opacity="0.69"></circle><circle r="13.5" cx="955" cy="177" stroke-width="2" stroke="hsl(258, 50%, 50%)" fill="none" opacity="0.34"></circle><circle r="13" cx="655" cy="474" stroke-width="2" stroke="hsl(245, 50%, 50%)" fill="none" opacity="0.76"></circle><circle r="11" cx="1229" cy="30" stroke-width="2" stroke="hsl(288, 50%, 50%)" fill="none" opacity="0.43"></circle><circle r="17" cx="239" cy="76" stroke-width="2" stroke="hsl(215, 50%, 50%)" fill="none" opacity="0.60"></circle><circle r="16" cx="1128" cy="468" stroke-width="2" stroke="hsl(330, 50%, 50%)" fill="none" opacity="0.78"></circle><circle r="19.5" cx="58" cy="355" stroke-width="2" stroke="hsl(287, 50%, 50%)" fill="none" opacity="0.50"></circle><circle r="13.5" cx="1003" cy="774" stroke-width="2" stroke="hsl(285, 50%, 50%)" fill="none" opacity="0.93"></circle><circle r="15.5" cx="823" cy="88" stroke-width="2" stroke="hsl(272, 50%, 50%)" fill="none" opacity="0.25"></circle><circle r="16" cx="1388" cy="104" stroke-width="2" stroke="hsl(295, 50%, 50%)" fill="none" opacity="0.42"></circle><circle r="17" cx="1208" cy="637" stroke-width="2" stroke="hsl(343, 50%, 50%)" fill="none" opacity="1.00"></circle><circle r="14.5" cx="1243" cy="500" stroke-width="2" stroke="hsl(341, 50%, 50%)" fill="none" opacity="0.56"></circle><circle r="12" cx="961" cy="227" stroke-width="2" stroke="hsl(265, 50%, 50%)" fill="none" opacity="0.77"></circle><circle r="9" cx="451" cy="520" stroke-width="2" stroke="hsl(236, 50%, 50%)" fill="none" opacity="0.74"></circle><circle r="8" cx="873" cy="13" stroke-width="2" stroke="hsl(245, 50%, 50%)" fill="none" opacity="0.78"></circle><circle r="9.5" cx="670" cy="750" stroke-width="2" stroke="hsl(244, 50%, 50%)" fill="none" opacity="0.72"></circle><circle r="10" cx="1405" cy="529" stroke-width="2" stroke="hsl(259, 50%, 50%)" fill="none" opacity="0.60"></circle><circle r="20" cx="717" cy="258" stroke-width="2" stroke="hsl(240, 50%, 50%)" fill="none" opacity="0.75"></circle><circle r="24" cx="40" cy="760" stroke-width="2" stroke="hsl(288, 50%, 50%)" fill="none" opacity="0.23"></circle><circle r="16" cx="497" cy="386" stroke-width="2" stroke="hsl(239, 50%, 50%)" fill="none" opacity="0.78"></circle><circle r="17.5" cx="1097" cy="627" stroke-width="2" stroke="hsl(323, 50%, 50%)" fill="none" opacity="0.40"></circle><circle r="20" cx="706" cy="80" stroke-width="2" stroke="hsl(313, 50%, 50%)" fill="none" opacity="0.17"></circle><circle r="15" cx="219" cy="522" stroke-width="2" stroke="hsl(263, 50%, 50%)" fill="none" opacity="0.76"></circle></svg>